# xmcd
#
# Track frame offsets:
#	150
#	15685
#	30740
#	49610
#	69745
#	82320
#	96580
#	111515
#	125281
#	140236
#	153536
#	169089
#
# Disc length: 2503
#
# Revision: 2
# Processed by: cddbd v1.5.1PL0 Copyright (c) Steve Scherf et al.
# Submitted via: EasyCDDAExtractor 7.0.5.4
# Normalized: r1:DSETVAR1
#
DISCID=b109c50c
DTITLE=Various Artist - Country Hits
DYEAR=1900
DGENRE=Country
TTITLE0=Ricky Van Shelton - I Am A Simple Man
TTITLE1=Faith Hill - This Kiss
TTITLE2=Montgomery Gentry - My Town
TTITLE3=John Michae4l Montgomery - I Swear
TTITLE4=Aaron Tippin - There Ain't Nothing Wrong With The Radio
TTITLE5=Terri Clark - Better Things To Do
TTITLE6=Glen Campbell - Rhinestone Cowboy
TTITLE7=Loretta Lynn - Coal Miner's Daughter
TTITLE8=Johnny Cash - I've Been Everywhere
TTITLE9=Charlie Pride - Behind Closed Doors
TTITLE10=Martina McBride - Independence Day
TTITLE11=Tim McGraw - Don't Take The Girl
EXTD=
EXTT0=
EXTT1=
EXTT2=
EXTT3=
EXTT4=
EXTT5=
EXTT6=
EXTT7=
EXTT8=
EXTT9=
EXTT10=
EXTT11=
PLAYORDER=
